HIERARCHY
ROOT hip
{
	OFFSET 0.000000 0.000000 0.000000 
	CHANNELS 6 Xposition Yposition Zposition Xrotation Zrotation Yrotation
	JOINT abdomen
	{
		OFFSET 0.000000 3.402643 0.000000 
		CHANNELS 3 Xrotation Zrotation Yrotation
		JOINT chest
		{
			OFFSET 0.000000 8.438565 -0.680529 
			CHANNELS 3 Xrotation Zrotation Yrotation
			JOINT neck
			{
				OFFSET 0.000000 10.207942 -0.272212 
				CHANNELS 3 Xrotation Zrotation Yrotation
				JOINT head
				{
					OFFSET 0.000000 3.130431 0.000000 
					CHANNELS 3 Xrotation Zrotation Yrotation
					End Site
					{
						OFFSET 0.000000 3.130435 0.000000 
					}
				}
			}
			JOINT lCollar
			{
				OFFSET 3.470700 6.669187 -0.816635 
				CHANNELS 3 Yrotation Zrotation Xrotation
				JOINT lShldr
				{
					OFFSET 3.198488 0.000000 0.000000 
					CHANNELS 3 Zrotation Yrotation Xrotation
					JOINT lForeArm
					{
						OFFSET 10.139888 0.000000 0.000000 
						CHANNELS 3 Yrotation Zrotation Xrotation
						JOINT lHand
						{
							OFFSET 8.370511 0.000000 0.000000 
							CHANNELS 3 Zrotation Yrotation Xrotation
							End Site
							{
								OFFSET 4.083176 0.000000 0.000000 
							}
						}
					}
				}
			}
			JOINT rCollar
			{
				OFFSET -3.470700 6.669187 -0.816635 
				CHANNELS 3 Yrotation Zrotation Xrotation
				JOINT rShldr
				{
					OFFSET -3.198488 0.000000 0.000000 
					CHANNELS 3 Zrotation Yrotation Xrotation
					JOINT rForeArm
					{
						OFFSET -10.139888 0.000000 0.000000 
						CHANNELS 3 Yrotation Zrotation Xrotation
						JOINT rHand
						{
							OFFSET -8.370511 0.000000 0.000000 
							CHANNELS 3 Zrotation Yrotation Xrotation
							End Site
							{
								OFFSET -4.083176 0.000000 0.000000 
							}
						}
					}
				}
			}
		}
	}
	JOINT lThigh
	{
		OFFSET 5.308129 -1.633274 1.361059 
		CHANNELS 3 Xrotation Zrotation Yrotation
		JOINT lShin
		{
			OFFSET -2.041588 -20.007561 0.000000 
			CHANNELS 3 Xrotation Zrotation Yrotation
			JOINT lFoot
			{
				OFFSET 0.000000 -19.190928 -1.224953 
				CHANNELS 3 Xrotation Yrotation Zrotation
				End Site
				{
					OFFSET 0.000000 -2.449906 4.627600 
				}
			}
		}
	}
	JOINT rThigh
	{
		OFFSET -5.308129 -1.633274 1.361059 
		CHANNELS 3 Xrotation Zrotation Yrotation
		JOINT rShin
		{
			OFFSET 2.041588 -20.007561 0.000000 
			CHANNELS 3 Xrotation Zrotation Yrotation
			JOINT rFoot
			{
				OFFSET 0.000000 -19.190928 -1.224953 
				CHANNELS 3 Xrotation Yrotation Zrotation
				End Site
				{
					OFFSET 0.000000 -2.449906 4.627600 
				}
			}
		}
	}
}
MOTION
Frames: 11
Frame Time: 0.016667
0.386814 36.454990 -0.235178 14.464900 -3.092330 -6.959800 -14.520800 4.944370 1.098810 10.529000 4.231480 0.883952 30.034201 -2.441620 1.009310 -8.603520 0.000000 0.000000 2.000000 -2.000000 0.000000 -69.425797 -7.125100 130.723999 55.889198 -0.291520 0.113249 5.492710 -0.939898 -139.871994 -2.000000 2.000000 0.000000 69.916100 7.170290 143.960007 -79.981003 0.238635 0.134644 6.532670 1.320840 -126.672997 -63.976059 9.993790 20.222393 56.081997 1.206644 3.884778 -6.896577 5.953581 -1.981613 -31.902752 2.144745 -12.153937 76.110146 0.444471 -4.671950 -30.870508 0.753693 0.376768 
0.347679 36.325237 -0.548912 14.377500 -3.140850 -6.937870 -14.511900 4.916290 0.995655 10.460100 4.259420 0.824963 29.703300 -2.640600 1.344580 -8.603520 0.000000 0.000000 2.000000 -2.000000 0.000000 -69.396004 -7.076700 130.449997 55.850101 -0.291597 0.113197 5.492380 -0.939630 -139.852997 -2.000000 2.000000 0.000000 70.023399 7.102070 143.891006 -79.902901 0.238818 0.134612 6.518510 1.330000 -126.779999 -64.357628 9.817322 19.582657 56.286877 1.212357 3.880053 -6.534637 6.219670 -2.029015 -32.342373 2.108450 -12.376682 76.659943 0.513005 -4.679173 -31.126770 0.643150 0.321206 
0.303023 36.264801 -0.822626 14.458400 -3.319420 -6.949360 -14.533400 4.958100 0.913150 10.509300 4.240840 0.792922 29.399700 -2.645460 1.654550 -8.603520 0.000000 0.000000 2.000000 -2.000000 0.000000 -69.376404 -6.998670 130.391006 55.771999 -0.291751 0.113092 5.488390 -0.927156 -140.037994 -2.000000 2.000000 0.000000 70.120796 6.868010 143.725006 -79.932198 0.238749 0.134624 6.529400 1.328470 -126.732002 -64.849670 9.764054 18.949556 56.207306 1.237483 3.866959 -6.001538 6.610839 -2.064042 -32.912315 2.300886 -12.642179 77.053032 0.558157 -4.693941 -30.767643 0.503570 0.262961 
0.258364 36.204475 -1.096343 14.539400 -3.497860 -6.951560 -14.554800 4.999890 0.830600 10.558600 4.212620 0.762540 29.077000 -2.647180 1.953460 -8.603520 0.000000 0.000000 2.000000 -2.000000 0.000000 -69.366501 -6.920630 130.332993 55.693901 -0.291905 0.112987 5.500140 -0.906933 -140.214005 -2.000000 2.000000 0.000000 70.208397 6.633940 143.567993 -79.971199 0.238658 0.134640 6.522450 1.321440 -126.693001 -65.350121 9.714912 18.325346 56.138100 1.247410 3.854860 -5.444502 7.002627 -2.113816 -33.482979 2.477292 -12.895992 77.466232 0.626205 -4.709540 -30.417803 0.373207 0.189398 
0.198881 36.132580 -1.365551 14.452000 -3.537070 -6.985220 -14.515300 4.948280 0.776814 10.607700 4.203630 0.738511 28.922300 -2.906180 2.262600 -8.603520 0.000000 0.000000 2.000000 -2.000000 0.000000 -69.268600 -6.998940 130.216003 55.781700 -0.291732 0.113105 5.502440 -0.886960 -140.419998 -2.000000 2.000000 0.000000 70.315697 6.555910 143.518997 -79.785698 0.239093 0.134562 6.525710 1.313820 -126.634003 -65.628403 9.654314 17.964949 55.951164 1.272499 3.845475 -4.777212 7.307412 -2.210689 -33.928410 2.548610 -12.972753 77.957993 0.677538 -4.739708 -30.357862 0.454667 0.283124 
0.139396 36.060795 -1.634770 14.364500 -3.576310 -7.009000 -14.475800 4.900090 0.732136 10.656800 4.194640 0.714467 28.776899 -3.159520 2.586290 -8.603520 0.000000 0.000000 2.000000 -2.000000 0.000000 -69.180496 -7.067480 130.098999 55.869598 -0.291558 0.113223 5.498420 -0.874415 -140.625000 -2.000000 2.000000 0.000000 70.422997 6.468130 143.460007 -79.609901 0.239506 0.134487 6.529170 1.305910 -126.566002 -65.916870 9.589593 17.608887 55.753399 1.318654 3.827197 -4.070272 7.608773 -2.305126 -34.384323 2.618665 -13.040301 78.439499 0.736830 -4.754851 -30.287754 0.548259 0.362150 
0.066371 35.993164 -1.897708 13.950900 -3.402690 -7.016850 -14.603700 4.932880 0.733737 10.577900 4.241730 0.710088 28.458799 -3.736900 2.964390 -8.603520 0.000000 0.000000 2.000000 -2.000000 0.000000 -69.366402 -7.018380 130.274002 56.055199 -0.291191 0.113471 5.504730 -0.866963 -140.634995 -2.000000 2.000000 0.000000 70.461899 6.106970 143.371994 -79.746597 0.239185 0.134546 6.528950 1.329080 -126.750999 -65.696602 9.453705 17.624792 55.468948 1.336681 3.817095 -3.340070 7.579490 -2.391508 -34.618198 2.566019 -12.915859 79.008888 0.783927 -4.771259 -30.145737 0.192477 0.162284 
-0.006654 35.925652 -2.160670 13.537500 -3.228260 -7.027230 -14.731400 4.959600 0.746835 10.489100 4.288660 0.704849 28.140301 -4.304800 3.352870 -8.603520 0.000000 0.000000 2.000000 -2.000000 0.000000 -69.552200 -6.979060 130.440002 56.230999 -0.290843 0.113704 5.505030 -0.867204 -140.654007 -2.000000 2.000000 0.000000 70.510498 5.745790 143.292999 -79.883301 0.238864 0.134604 6.528600 1.352400 -126.935997 -65.485657 9.318933 17.649872 55.192345 1.377305 3.778964 -2.621775 7.542962 -2.491464 -34.832436 2.529265 -12.783588 79.558022 0.825007 -4.773704 -29.999557 -0.188856 -0.043030 
-0.105350 35.884201 -2.393839 13.292800 -3.212530 -7.077350 -14.532800 4.899710 0.868051 10.537200 4.356620 0.755246 28.295500 -4.510230 3.855950 -8.603520 0.000000 0.000000 2.000000 -2.000000 0.000000 -69.435600 -7.222760 130.723999 56.064999 -0.291172 0.113484 5.500220 -0.880516 -140.507996 -2.000000 2.000000 0.000000 70.637001 5.560840 142.979996 -79.688004 0.239323 0.134521 6.522140 1.344710 -126.877998 -65.429619 9.447705 17.628197 54.974899 1.427218 3.762642 -1.889025 7.243262 -2.559078 -35.043224 2.702861 -12.796762 79.863235 0.868875 -4.792942 -30.075949 -0.400806 -0.137948 
-0.204046 35.842972 -2.627007 13.038100 -3.187320 -7.124870 -14.343800 4.833400 1.000320 10.575400 4.424470 0.804253 28.449301 -4.717820 4.370110 -8.603520 0.000000 0.000000 2.000000 -2.000000 0.000000 -69.328697 -7.476220 131.007004 55.889198 -0.291520 0.113249 5.505100 -0.893759 -140.360992 -2.000000 2.000000 0.000000 70.773300 5.375870 142.677002 -79.482903 0.239804 0.134432 6.525210 1.337350 -126.829002 -65.371330 9.592367 17.604805 54.788025 1.443721 3.747909 -1.188667 6.967500 -2.622218 -35.273006 2.882877 -12.804463 80.168121 0.915606 -4.798402 -30.160473 -0.638009 -0.228331 
-0.312182 35.802643 -2.896182 12.871700 -3.179930 -6.771670 -14.402200 4.790250 0.966846 10.537200 4.356620 0.794308 28.761101 -5.304250 5.110030 -8.603520 0.000000 0.000000 2.000000 -2.000000 0.000000 -69.339104 -7.641750 131.320007 55.967300 -0.291365 0.113354 5.495730 -0.920559 -140.106995 -2.000000 2.000000 0.000000 70.909599 5.073580 142.442001 -79.512199 0.239735 0.134445 6.525040 1.360400 -127.003998 -65.437737 9.447259 17.496794 54.374119 1.493915 3.708618 -0.328400 6.807725 -2.738861 -35.550930 2.946643 -13.076924 80.472702 0.941191 -4.811316 -29.808035 -1.053182 -0.442425 
